PathFileType	4	(X/Y/Z)	c:\Git\1_current_projects\powerlifing_model\simulations\Athlete_03\22_07_06\dl_70_test\markers_experimental.trc
DataRate	CameraRate	NumFrames	NumMarkers	Units	OrigDataRate	OrigDataStartFrame	OrigNumFrames
200.000000	200.000000	4	59	mm	200.000000	2107	2810
Frame#	Time	BL			BR			GLAB			RFHD			LFHD			C7			T6			SPINMOL			SPINM2			SPINM3			BELTOL			BELT2			BELT3			SACROL			SACR2			SACR3			LTHOL			LTH2			LTH3			LSHAOL			LSHA2			LSHA3			LHEE			LTOE			LM5			RTHOL			RTH2			RTH3			RSHAOL			RSHA2			RSHA3			RHEE			RTOE			RM5			STRN			XIPH			LACR			LUAOL			LUA2			LUA3			LLAOL			LLA2			LLA3			LWRU			RACR			RUAOL			RUA2			RUA3			RLAOL			RLA2			RLA3			RWRU			T12			USERMO0			USERMO1			USERMO2			USERMO3			USERMO4			USERMO5			
		X1	Y1	Z1	X2	Y2	Z2	X3	Y3	Z3	X4	Y4	Z4	X5	Y5	Z5	X6	Y6	Z6	X7	Y7	Z7	X8	Y8	Z8	X9	Y9	Z9	X10	Y10	Z10	X11	Y11	Z11	X12	Y12	Z12	X13	Y13	Z13	X14	Y14	Z14	X15	Y15	Z15	X16	Y16	Z16	X17	Y17	Z17	X18	Y18	Z18	X19	Y19	Z19	X20	Y20	Z20	X21	Y21	Z21	X22	Y22	Z22	X23	Y23	Z23	X24	Y24	Z24	X25	Y25	Z25	X26	Y26	Z26	X27	Y27	Z27	X28	Y28	Z28	X29	Y29	Z29	X30	Y30	Z30	X31	Y31	Z31	X32	Y32	Z32	X33	Y33	Z33	X34	Y34	Z34	X35	Y35	Z35	X36	Y36	Z36	X37	Y37	Z37	X38	Y38	Z38	X39	Y39	Z39	X40	Y40	Z40	X41	Y41	Z41	X42	Y42	Z42	X43	Y43	Z43	X44	Y44	Z44	X45	Y45	Z45	X46	Y46	Z46	X47	Y47	Z47	X48	Y48	Z48	X49	Y49	Z49	X50	Y50	Z50	X51	Y51	Z51	X52	Y52	Z52	X53	Y53	Z53	X54	Y54	Z54	X55	Y55	Z55	X56	Y56	Z56	X57	Y57	Z57	X58	Y58	Z58	X59	Y59	Z59	

2108	10.535	147.2089538574219	642.4392700195314	-2313.957275390625	213.5887603759766	676.8466186523439	-93.17218017578126	321.1923217773438	1505.138793945313	-1187.193359375	274.3019409179688	1548.080810546875	-1112.28466796875	275.2326354980469	1546.462890625	-1267.304077148438	61.67625427246095	1473.183349609375	-1187.245849609375	-20.44263076782227	1271.387573242188	-1193.657836914063	-26.90536689758301	1243.6865234375	-1199.096923828125	-41.64834594726563	1185.56005859375	-1146.22314453125	-33.97907257080079	1182.37548828125	-1195.222900390625	-56.2250328063965	1130.563842773438	-1195.355346679688	-63.656307220459	1071.306396484375	-1142.338012695313	-69.4947967529297	1069.864135742188	-1192.106079101563	-69.71422576904298	994.9702148437502	-1216.292114257813	-59.28885650634767	1003.757202148438	-1167.049072265625	-94.66577148437501	948.6748046875002	-1176.314331054688	64.45488739013673	759.0200195312501	-1416.890869140625	28.72530555725098	691.5393066406251	-1392.610595703125	73.27550506591798	698.0123291015626	-1415.259765625	73.48345184326173	347.0084228515626	-1413.501098632813	40.1403923034668	276.0846862792969	-1402.430297851563	86.73062896728517	286.4720153808594	-1411.072387695313	27.6438102722168	65.0138626098633	-1332.662963867188	237.0512390136719	72.82022094726564	-1341.876708984375	193.6163482666016	56.10647583007814	-1448.449584960938	65.8029251098633	729.9383544921876	-979.7476196289065	110.3441619873047	665.0250244140626	-964.8931274414065	64.22582244873048	667.7914428710939	-984.9438476562502	57.52260971069337	338.7116394042969	-979.215026855469	104.4690704345703	274.5664367675782	-977.4357910156252	55.51866149902345	277.9664611816407	-988.166442871094	27.93657302856446	63.09640121459962	-1069.615112304688	237.5398254394532	66.60967254638673	-1053.295166015625	194.9942169189454	67.41946411132814	-953.8853149414065	196.7498474121094	1372.940185546875	-1200.140991210938	244.8495178222657	1225.65869140625	-1198.567626953125	100.2832336425782	1372.111938476563	-1405.04541015625	102.6367492675782	1216.23583984375	-1463.032958984375	81.69426727294923	1154.70947265625	-1469.410278320313	132.8959655761719	1158.725830078125	-1465.645751953125	179.4238891601563	935.2556762695315	-1455.421142578125	168.9470825195313	871.208190917969	-1461.878295898438	204.6055603027344	882.427185058594	-1428.522094726563	197.6586303710938	783.2468261718752	-1442.455322265625	123.7308578491211	1372.69384765625	-988.755554199219	150.2622985839844	1189.017333984375	-946.4268798828127	185.4443511962891	1137.533447265625	-966.8134765625002	151.0732879638672	1124.219848632813	-932.0434570312502	199.7304992675782	927.5054931640627	-949.9849853515627	220.9833068847657	876.1302490234377	-982.950378417969	198.9475555419922	864.657409667969	-937.7902832031252	206.9795684814454	787.132263183594	-943.731872558594	-26.83614730834962	1147.505615234375	-1194.745361328125	0.03738480061292649	0.01257789973169566	-0.0520806983113289	0.01056720037013292	0.08055859804153444	-0.07063110172748567	0.02408169955015183	0.03771290183067322	-0.03532610088586808	0.1053970009088517	0.1912859976291657	-0.7399209737777711	0.337653011083603	2.541320085525513	-0.333640992641449	2.856990098953248	0	0	
2109	10.54	147.0354461669922	642.0925903320314	-2313.95458984375	213.4359893798829	676.4637451171876	-93.17492675781251	323.2396545410157	1504.194091796875	-1187.157470703125	276.4931335449219	1547.314331054688	-1112.258911132813	277.4773864746094	1545.683715820313	-1267.26123046875	63.65714263916017	1473.123413085938	-1187.285278320313	-19.24021530151368	1271.72119140625	-1193.723876953125	-25.82838249206544	1244.057861328125	-1199.174438476563	-40.8661117553711	1186.008178710938	-1146.291625976563	-33.14587020874024	1182.774536132813	-1195.284057617188	-55.74550247192384	1130.999633789063	-1195.400512695313	-63.43065643310548	1071.767700195313	-1142.388916015625	-69.26010131835939	1070.350341796875	-1192.158081054688	-69.68435668945314	995.346130371094	-1216.34033203125	-59.28300094604494	1004.115295410156	-1167.09033203125	-94.72859191894533	949.0806884765627	-1176.3779296875	64.30640411376955	759.0005493164064	-1416.932983398438	28.53583145141602	691.5394287109376	-1392.658935546875	73.10344696044923	697.9754638671876	-1415.294067382813	73.37365722656251	346.9901428222657	-1413.529907226563	40.09450912475587	276.0328979492188	-1402.450561523438	86.65564727783205	286.4628906250001	-1411.08447265625	27.64459419250489	65.00386047363283	-1332.677124023438	237.0508270263672	72.82101440429689	-1341.878295898438	193.6161651611329	56.10414123535158	-1448.45166015625	65.63094329833986	729.8935546875001	-979.6822509765627	110.1881103515625	664.9852905273439	-964.8435668945315	64.04580688476564	667.7424926757814	-984.853210449219	57.50264739990236	338.6960449218751	-979.192077636719	104.4663619995117	274.5619506835938	-977.4472656250002	55.49351882934572	277.9625549316407	-988.133483886719	27.93385887145997	63.0946617126465	-1069.61474609375	237.5402984619141	66.6060028076172	-1053.29833984375	194.9952392578126	67.42282104492189	-953.8914184570315	198.426742553711	1372.410278320313	-1200.137573242188	245.9353027343751	1224.936645507813	-1198.526977539063	101.9746856689453	1371.909423828125	-1405.047485351563	103.9224090576172	1216.053466796875	-1463.0107421875	82.82146453857423	1154.576782226563	-1469.416870117188	134.0293579101563	1158.460571289063	-1465.615356445313	179.908935546875	934.8630371093752	-1455.425048828125	169.2512969970703	870.8391723632815	-1461.88037109375	204.9320831298829	881.9619750976565	-1428.51611328125	197.7092895507813	782.810974121094	-1442.462646484375	125.32666015625	1372.439697265625	-988.7969970703127	151.3927001953125	1188.718139648438	-946.5432739257815	186.3953399658203	1137.124755859375	-966.969421386719	152.0406646728516	1123.91015625	-932.151306152344	200.141098022461	927.0791015625002	-950.0269775390627	221.2363891601563	875.6521606445315	-982.987731933594	199.2214508056641	864.2479248046877	-937.7849121093752	207.0179595947266	786.7078857421877	-943.7353515625002	-26.19407081604005	1147.783081054688	-1194.828247070313	0.03690459951758385	0.01207039970904589	-0.05137280002236368	0.01063170004636049	0.08239439874887468	-0.06980449706315996	0.02442979998886586	0.03723140060901643	-0.03585390001535416	0.1089299991726876	0.1917680054903031	-0.7445189952850343	0.3370560109615326	2.512290000915528	-0.3315150141716004	2.844959974288941	0	0	
2110	10.545	146.8682861328125	641.7480468750001	-2313.957275390625	213.2838287353516	676.0819702148439	-93.17971038818361	325.2915344238282	1503.239990234375	-1187.123657226563	278.6893615722657	1546.535888671875	-1112.236694335938	279.7255859375001	1544.89404296875	-1267.220703125	65.64266204833986	1473.052734375	-1187.325439453125	-18.03178977966309	1272.046508789063	-1193.787719726563	-24.74533271789551	1244.421508789063	-1199.249267578125	-40.07700347900391	1186.451293945313	-1146.356079101563	-32.30566406250001	1183.1669921875	-1195.341552734375	-55.25830078125001	1131.432006835938	-1195.440795898438	-63.19531631469728	1072.226196289063	-1142.435302734375	-69.01686859130861	1070.83447265625	-1192.205444335938	-69.64916229248048	995.717468261719	-1216.382080078125	-59.27019500732423	1004.469665527344	-1167.128173828125	-94.7853469848633	949.4838867187502	-1176.4375	64.16107177734376	758.9788208007814	-1416.97705078125	28.35157585144044	691.5361938476564	-1392.709838867188	72.9365921020508	697.9355468750001	-1415.330810546875	73.27188110351564	346.9715270996094	-1413.559204101563	40.06010818481446	275.9790344238282	-1402.467651367188	86.58785247802736	286.4532775878907	-1411.095581054688	27.64617538452149	64.99341583251955	-1332.691650390625	237.0508117675782	72.82125854492189	-1341.879272460938	193.6162109375001	56.10219955444337	-1448.453002929688	65.4650115966797	729.8495483398439	-979.614440917969	110.0373001098633	664.9475097656251	-964.787780761719	63.87319946289064	667.6943969726564	-984.7589111328127	57.48634719848634	338.6803283691407	-979.1621093750002	104.466537475586	274.5567321777344	-977.4527587890627	55.47513961791994	277.9547729492188	-988.0954589843752	27.93075370788575	63.09315109252931	-1069.613037109375	237.541000366211	66.60289764404298	-1053.30078125	194.9961242675782	67.42533111572267	-953.8963012695315	200.1077575683594	1371.869384765625	-1200.134765625	247.0201721191407	1224.203857421875	-1198.48779296875	103.6733703613282	1371.698852539063	-1405.05029296875	105.2233047485352	1215.866455078125	-1462.990844726563	83.96538543701173	1154.439086914063	-1469.427856445313	135.1799926757813	1158.19091796875	-1465.584838867188	180.4057006835938	934.4655761718752	-1455.427612304688	169.5655517578125	870.466247558594	-1461.8818359375	205.2677154541016	881.4931640625002	-1428.50830078125	197.768783569336	782.3728027343752	-1442.469360351563	126.9307556152344	1372.1796875	-988.838806152344	152.5318298339844	1188.414672851563	-946.6587524414065	187.3538513183594	1136.712158203125	-967.1255493164065	153.0190582275391	1123.597534179688	-932.256774902344	200.5602722167969	926.6485595703127	-950.0718994140627	221.4962463378907	875.1707763671877	-983.0269165039065	199.5008239746094	863.8347778320315	-937.7829589843752	207.0638122558594	786.2807617187502	-943.740173339844	-25.55056762695313	1148.059204101563	-1194.90185546875	0.0367565006017685	0.01150859985500574	-0.05057990178465845	0.01070609968155623	0.08384010195732118	-0.06902410089969636	0.02470380067825318	0.03677820041775704	-0.03609609976410866	0.1123370006680489	0.1921620070934296	-0.7487059831619264	0.3369579911231995	2.485610008239747	-0.3290759921073914	2.830889940261841	0	0	
2111	10.55	146.7080841064453	641.4056396484376	-2313.9658203125	213.1328582763672	675.7010498046876	-93.18655395507814	327.3470458984376	1502.27587890625	-1187.091186523438	280.8889770507813	1545.745483398438	-1112.217895507813	281.9762878417969	1544.093505859375	-1267.182495117188	67.63134765625001	1472.971435546875	-1187.366333007813	-16.81788063049317	1272.363159179688	-1193.84912109375	-23.65662574768067	1244.777099609375	-1199.3212890625	-39.2807846069336	1186.888427734375	-1146.41650390625	-31.45876502990723	1183.552490234375	-1195.395141601563	-54.76289367675783	1131.861206054688	-1195.475952148438	-62.94959259033205	1072.68212890625	-1142.476806640625	-68.76472473144533	1071.316528320313	-1192.24755859375	-69.6095428466797	996.084655761719	-1216.418334960938	-59.25064086914064	1004.8203125	-1167.162353515625	-94.8362274169922	949.8843994140627	-1176.492553710938	64.01792907714845	758.9545898437501	-1417.023071289063	28.17189598083497	691.5294189453126	-1392.763061523438	72.77437591552736	697.8927001953126	-1415.369384765625	73.17758941650392	346.9526672363282	-1413.588745117188	40.03350830078126	275.9251708984376	-1402.483032226563	86.52667236328126	286.4432067871094	-1411.105590820313	27.64854812622071	64.98246002197267	-1332.70654296875	237.0512695312501	72.8209915161133	-1341.879516601563	193.6165161132813	56.10070037841798	-1448.453735351563	65.30358123779298	729.8064575195314	-979.544616699219	109.8897476196289	664.9116210937501	-964.7264404296877	63.70650482177736	667.6475219726564	-984.662292480469	57.47131729125978	338.6645507812501	-979.1250610351565	104.4676589965821	274.5511779785157	-977.4519042968752	55.46062469482423	277.9439086914063	-988.0513305664065	27.92718696594239	63.09179306030275	-1069.60986328125	237.5419158935547	66.60051727294923	-1053.302612304688	194.9968566894532	67.42684173583986	-953.8997802734377	201.7914428710938	1371.31787109375	-1200.131958007813	248.1033477783204	1223.4609375	-1198.44970703125	105.3787612915039	1371.480102539063	-1405.053466796875	106.5376815795899	1215.6748046875	-1462.973022460938	85.12383270263673	1154.296142578125	-1469.443237304688	136.3454284667969	1157.9169921875	-1465.555053710938	180.911605834961	934.0628662109377	-1455.429443359375	169.88818359375	870.089538574219	-1461.883911132813	205.6111602783204	881.0208129882815	-1428.499755859375	197.8361968994141	781.9324340820315	-1442.47607421875	128.5419158935547	1371.913818359375	-988.8808593750002	153.6790161132813	1188.107055664063	-946.773132324219	188.3195953369141	1136.296020507813	-967.2815551757815	154.0079040527344	1123.28271484375	-932.3588867187502	200.9873809814454	926.214050292969	-950.1196899414065	221.7623748779297	874.6860961914065	-983.068298339844	199.7847747802735	863.4170532226565	-937.7862548828127	207.1171417236329	785.851013183594	-943.746520996094	-24.90569305419923	1148.334228515625	-1194.966186523438	0.03692639991641045	0.01092430017888546	-0.0497495010495186	0.0107853002846241	0.08478420227766038	-0.06827910244464876	0.02490819990634919	0.03636660054326058	-0.03601520135998727	0.1154579967260361	0.1924390047788621	-0.7523660063743594	0.3373030126094819	2.463140010833741	-0.3265109956264496	2.814699888229371	0	0	
